<?xml version="1.0" encoding="UTF-8" standalone="no"?>
<!-- Created with Inkscape (http://www.inkscape.org/) -->

<svg
   xmlns:dc="http://purl.org/dc/elements/1.1/"
   xmlns:cc="http://creativecommons.org/ns#"
   xmlns:rdf="http://www.w3.org/1999/02/22-rdf-syntax-ns#"
   xmlns:svg="http://www.w3.org/2000/svg"
   xmlns="http://www.w3.org/2000/svg"
   xmlns:sodipodi="http://sodipodi.sourceforge.net/DTD/sodipodi-0.dtd"
   xmlns:inkscape="http://www.inkscape.org/namespaces/inkscape"
   width="229.63596"
   height="58.589684"
   id="svg6779"
   version="1.1"
   inkscape:version="0.48.4 r9939"
   sodipodi:docname="logo.svg"
   inkscape:export-filename="C:\Users\Jules\Desktop\unkilodeplumes.github.io\page2\logo.png"
   inkscape:export-xdpi="97.980003"
   inkscape:export-ydpi="97.980003">
  <defs
     id="defs6781" />
  <sodipodi:namedview
     id="base"
     pagecolor="#ffffff"
     bordercolor="#666666"
     borderopacity="1.0"
     inkscape:pageopacity="0.0"
     inkscape:pageshadow="2"
     inkscape:zoom="2.8"
     inkscape:cx="136.68455"
     inkscape:cy="-0.81570422"
     inkscape:document-units="px"
     inkscape:current-layer="layer1"
     showgrid="false"
     fit-margin-top="0"
     fit-margin-left="0"
     fit-margin-right="0"
     fit-margin-bottom="0"
     inkscape:window-width="1366"
     inkscape:window-height="746"
     inkscape:window-x="-8"
     inkscape:window-y="-8"
     inkscape:window-maximized="1" />
  <metadata
     id="metadata6784">
    <rdf:RDF>
      <cc:Work
         rdf:about="">
        <dc:format>image/svg+xml</dc:format>
        <dc:type
           rdf:resource="http://purl.org/dc/dcmitype/StillImage" />
        <dc:title></dc:title>
      </cc:Work>
    </rdf:RDF>
  </metadata>
  <g
     inkscape:label="Calque 1"
     inkscape:groupmode="layer"
     id="layer1"
     transform="translate(-70.896311,-194.50113)">
    <g
       id="g5411"
       transform="matrix(0.84957657,0,0,0.84674921,65.995163,-197.89551)">
      <flowRoot
         xml:space="preserve"
         id="flowRoot4114"
         style="font-size:130px;font-style:normal;font-variant:normal;font-weight:bold;font-stretch:normal;line-height:125%;letter-spacing:0px;word-spacing:0px;fill:#000000;fill-opacity:1;stroke:none;font-family:Segoe Script;-inkscape-font-specification:Segoe Script Bold"
         transform="matrix(0.16697433,0,0,0.16768225,228.00573,479.11727)"><flowRegion
           id="flowRegion4116"><rect
             id="rect4118"
             width="1929.9916"
             height="201.63162"
             x="-1341.4286"
             y="-99.066391"
             style="font-size:130px;font-style:normal;font-variant:normal;font-weight:bold;font-stretch:normal;font-family:Segoe Script;-inkscape-font-specification:Segoe Script Bold" /></flowRegion><flowPara
           id="flowPara4120">UNKILODEPLUMES .FR</flowPara></flowRoot>      <g
         id="g4086"
         transform="matrix(0.16697433,0,0,0.16768225,438.72258,420.49194)">
        <path
           sodipodi:nodetypes="csscccscscc"
           inkscape:connector-curvature="0"
           id="path4034"
           d="m -1888.3271,586.42947 c 2.4076,11.34233 -5.8732,35.09327 -4.6659,30.61812 l 1.8816,-6.97457 c 1.2088,-4.48055 -21.826,-5.38635 -21.68,-3.64355 8.7976,12.78161 25.8315,33.62405 39.0344,45.59173 4.2469,3.34197 -0.811,-11.5532 -9.0344,-25.23459 15.1661,10.60616 24.5851,26.66637 29.6428,18.03572 1.8667,-3.1854 -16.2457,-11.33397 -19.2857,-21.96429 17.8318,1.0765 30.1061,14.64496 29.2857,4.82143 -0.8519,-10.20177 -28.013,-12.57795 -36.4286,-15.35714 l 0.7143,-28.21429"
           style="fill:#ffffff;stroke:#000000;stroke-width:5.17999983;stroke-linecap:butt;stroke-linejoin:round;stroke-miterlimit:4;stroke-opacity:1;stroke-dasharray:none" />
        <path
           style="fill:#ffffff;stroke:#000000;stroke-width:5.17999983;stroke-linecap:butt;stroke-linejoin:round;stroke-miterlimit:4;stroke-opacity:1;stroke-dasharray:none"
           d="m -1941.3398,601.54114 c 2.4076,11.34233 -5.3794,34.12659 -4.6659,29.54669 l 0.953,-6.11743 c 0.6115,-3.92513 -18.7545,-2.67206 -18.6085,-0.92926 8.7976,12.78161 19.2243,29.51691 32.4272,41.48459 4.2469,3.34197 3.6533,-9.94606 -4.5701,-23.62745 15.5085,6.84007 24.6916,25.49495 29.6428,18.03572 2.0418,-3.0761 -13.21,-9.72682 -16.25,-20.35714 17.8318,1.0765 27.0704,13.03781 26.25,3.21428 -0.8519,-10.20177 -28.013,-13.29223 -36.4286,-16.07142 l 0.7143,-27.50001"
           id="path3984"
           inkscape:connector-curvature="0"
           sodipodi:nodetypes="csscccscscc" />
        <path
           sodipodi:nodetypes="cc"
           inkscape:connector-curvature="0"
           id="path4124"
           d="m -1849.5594,288.87281 c -4.2591,-25.88763 22.2862,-45.45768 27.7622,-6.58429"
           style="fill:#ffffff;stroke:#000000;stroke-width:5.18371296;stroke-linecap:round;stroke-linejoin:miter;stroke-opacity:1" />
        <path
           style="fill:#ffffff;stroke:#000000;stroke-width:5.18371296;stroke-linecap:round;stroke-linejoin:miter;stroke-opacity:1"
           d="m -1867.3499,287.01049 c -4.259,-25.88763 22.2861,-45.45768 27.7623,-6.58429"
           id="path4126"
           inkscape:connector-curvature="0"
           sodipodi:nodetypes="cc" />
        <path
           style="fill:#ffffff;fill-opacity:1;stroke:#000000;stroke-width:5.18371296;stroke-linecap:round;stroke-linejoin:miter;stroke-opacity:1"
           d="m -1962.3963,514.8726 c 41.3266,-68.75919 74.2607,-165.55892 93.7777,-146.07124 3.2012,23.209 -25.8059,65.83667 -93.7777,146.07124 z"
           id="path4128"
           inkscape:connector-curvature="0"
           sodipodi:nodetypes="ccc"
           inkscape:transform-center-x="-43.55233"
           inkscape:transform-center-y="-34.349026" />
        <path
           inkscape:transform-center-y="-36.858005"
           inkscape:transform-center-x="-41.486951"
           sodipodi:nodetypes="ccc"
           inkscape:connector-curvature="0"
           id="path4130"
           d="m -1964.0171,503.18638 c 37.0792,-71.19573 64.0812,-169.85802 84.7433,-151.61895 4.6026,22.96649 -21.7651,67.31497 -84.7433,151.61895 z"
           style="fill:#ffffff;fill-opacity:1;stroke:#000000;stroke-width:5.18371296;stroke-linecap:round;stroke-linejoin:miter;stroke-opacity:1" />
        <path
           style="fill:#ffffff;fill-opacity:1;stroke:#000000;stroke-width:5.18371296;stroke-linecap:round;stroke-linejoin:miter;stroke-opacity:1"
           d="m -1958.9952,490.45947 c 29.124,-76.34445 45.3056,-178.36516 67.7538,-163.47882 7.0304,22.0618 -14.3545,70.12405 -67.7538,163.47882 z"
           id="path4132"
           inkscape:connector-curvature="0"
           sodipodi:nodetypes="ccc"
           inkscape:transform-center-x="-36.587511"
           inkscape:transform-center-y="-41.617511" />
        <path
           inkscape:transform-center-y="-46.704704"
           inkscape:transform-center-x="-29.699341"
           sodipodi:nodetypes="ccc"
           inkscape:connector-curvature="0"
           id="path4134"
           d="m -1958.9006,490.04485 c 18.3885,-81.01982 20.5273,-184.84331 44.6936,-174.54397 9.9267,20.39319 -4.6591,71.99506 -44.6936,174.54397 z"
           style="fill:#ffffff;fill-opacity:1;stroke:#000000;stroke-width:5.18371296;stroke-linecap:round;stroke-linejoin:miter;stroke-opacity:1" />
        <path
           style="fill:#ffffff;fill-opacity:1;stroke:#000000;stroke-width:5.18371296;stroke-linecap:round;stroke-linejoin:miter;stroke-opacity:1"
           d="m -1958.864,489.64446 c 7.8808,-83.44079 -3.1948,-186.44066 21.9971,-180.6901 12.401,18.3355 4.5412,72.00591 -21.9971,180.6901 z"
           id="path4136"
           inkscape:connector-curvature="0"
           sodipodi:nodetypes="ccc"
           inkscape:transform-center-x="-22.744662"
           inkscape:transform-center-y="-50.412026" />
        <path
           inkscape:transform-center-y="-52.72312"
           inkscape:transform-center-x="-16.541694"
           sodipodi:nodetypes="ccc"
           inkscape:connector-curvature="0"
           id="path4138"
           d="m -1958.8736,489.29617 c -1.3649,-83.95988 -23.6712,-184.30036 1.9324,-182.59643 14.309,16.20765 12.4207,70.65463 -1.9324,182.59643 z"
           style="fill:#ffffff;fill-opacity:1;stroke:#000000;stroke-width:5.18371296;stroke-linecap:round;stroke-linejoin:miter;stroke-opacity:1" />
        <path
           style="fill:#ffffff;fill-opacity:1;stroke:#000000;stroke-width:5.18371296;stroke-linecap:round;stroke-linejoin:miter;stroke-opacity:1"
           d="m -1958.9284,488.91871 c -11.4987,-82.83259 -45.697,-178.22117 -20.1587,-180.99915 16.1164,13.54126 20.8293,67.74072 20.1587,180.99915 z"
           id="path4140"
           inkscape:connector-curvature="0"
           sodipodi:nodetypes="ccc"
           inkscape:transform-center-x="-9.828223"
           inkscape:transform-center-y="-54.2589" />
        <path
           inkscape:transform-center-y="-54.683888"
           inkscape:transform-center-x="4.3524689"
           sodipodi:nodetypes="ccc"
           inkscape:connector-curvature="0"
           id="path4142"
           d="m -1959.0521,488.48766 c -23.2275,-79.20704 -70.6181,-166.07737 -45.862,-174.10631 17.8203,9.99812 30.2496,62.40786 45.862,174.10631 z"
           style="fill:#ffffff;fill-opacity:1;stroke:#000000;stroke-width:5.18371296;stroke-linecap:round;stroke-linejoin:miter;stroke-opacity:1" />
        <path
           style="fill:#ffffff;fill-opacity:1;stroke:#000000;stroke-width:5.18371296;stroke-linecap:round;stroke-linejoin:miter;stroke-opacity:1"
           d="m -1959.2247,488.1089 c -33.6957,-73.58151 -92.2727,-149.97949 -68.9423,-162.76062 18.9413,6.36512 38.3369,55.62972 68.9423,162.76062 z"
           id="path4144"
           inkscape:connector-curvature="0"
           sodipodi:nodetypes="ccc"
           inkscape:transform-center-x="13.766503"
           inkscape:transform-center-y="-53.616422" />
        <path
           inkscape:transform-center-y="-51.109714"
           inkscape:transform-center-x="21.723548"
           sodipodi:nodetypes="ccc"
           inkscape:connector-curvature="0"
           id="path4146"
           d="m -1959.4463,487.76945 c -43.2487,-65.98491 -111.4275,-129.86843 -90.1483,-147.05379 19.5525,2.56465 45.3864,47.3638 90.1483,147.05379 z"
           style="fill:#ffffff;fill-opacity:1;stroke:#000000;stroke-width:5.18371296;stroke-linecap:round;stroke-linejoin:miter;stroke-opacity:1" />
        <path
           style="fill:#ffffff;fill-opacity:1;stroke:#000000;stroke-width:5.18371296;stroke-linecap:round;stroke-linejoin:miter;stroke-opacity:1"
           d="m -1959.6911,487.49694 c -51.0887,-57.33401 -126.5529,-108.04523 -107.6929,-128.91142 19.6501,-1.03031 50.8479,38.53892 107.6929,128.91142 z"
           id="path4148"
           inkscape:connector-curvature="0"
           sodipodi:nodetypes="ccc"
           inkscape:transform-center-x="28.770459"
           inkscape:transform-center-y="-47.548904" />
        <path
           inkscape:transform-center-y="-42.23488"
           inkscape:transform-center-x="36.021271"
           sodipodi:nodetypes="ccc"
           inkscape:connector-curvature="0"
           id="path4150"
           d="m -1960.0037,487.24788 c -58.48,-46.03311 -140.0383,-80.54907 -124.4168,-104.97169 19.2163,-5.03895 55.5746,27.56258 124.4168,104.97169 z"
           style="fill:#ffffff;fill-opacity:1;stroke:#000000;stroke-width:5.18371296;stroke-linecap:round;stroke-linejoin:miter;stroke-opacity:1" />
        <path
           style="fill:#ffffff;fill-opacity:1;stroke:#000000;stroke-width:5.18371296;stroke-linecap:round;stroke-linejoin:miter;stroke-opacity:1"
           d="m -1960.2576,487.10577 c -62.8907,-36.69993 -147.4483,-58.44188 -134.5476,-85.0578 18.524,-7.94112 58.0474,18.82525 134.5476,85.0578 z"
           id="path4152"
           inkscape:connector-curvature="0"
           sodipodi:nodetypes="ccc"
           inkscape:transform-center-x="40.827388"
           inkscape:transform-center-y="-37.485125" />
        <path
           inkscape:transform-center-y="-30.958419"
           inkscape:transform-center-x="45.890951"
           sodipodi:nodetypes="ccc"
           inkscape:connector-curvature="0"
           id="path4154"
           d="m -1960.5874,486.98601 c -66.9036,-24.40569 -153.2536,-29.95909 -143.9864,-58.67473 17.2585,-11.3305 59.7869,7.66383 143.9864,58.67473 z"
           style="fill:#ffffff;fill-opacity:1;stroke:#000000;stroke-width:5.18371296;stroke-linecap:round;stroke-linejoin:miter;stroke-opacity:1" />
        <path
           style="fill:#ffffff;fill-opacity:1;stroke:#000000;stroke-width:5.18371296;stroke-linecap:round;stroke-linejoin:miter;stroke-opacity:1"
           d="m -1960.9253,486.93009 c -69.2458,-11.64683 -155.2679,-1.04686 -149.8218,-31.14131 15.5865,-14.40848 60.0532,-3.56667 149.8218,31.14131 z"
           id="path4156"
           inkscape:connector-curvature="0"
           sodipodi:nodetypes="ccc"
           inkscape:transform-center-x="49.854968"
           inkscape:transform-center-y="-23.957682" />
        <path
           inkscape:transform-center-y="-17.590469"
           inkscape:transform-center-x="52.393516"
           sodipodi:nodetypes="ccc"
           inkscape:connector-curvature="0"
           id="path4158"
           d="m -1961.2238,486.93334 c -69.9212,-0.23722 -153.946,24.30408 -151.9555,-6.40009 13.8113,-16.81865 59.0924,-13.33483 151.9555,6.40009 z"
           style="fill:#ffffff;fill-opacity:1;stroke:#000000;stroke-width:5.18371296;stroke-linecap:round;stroke-linejoin:miter;stroke-opacity:1" />
        <path
           style="fill:#ffffff;fill-opacity:1;stroke:#000000;stroke-width:5.18371296;stroke-linecap:round;stroke-linejoin:miter;stroke-opacity:1"
           d="m -1961.4761,486.97461 c -69.4724,9.50119 -150.5613,45.57776 -151.5485,14.80346 12.0946,-18.62854 57.4066,-21.47379 151.5485,-14.80346 z"
           id="path4160"
           inkscape:connector-curvature="0"
           sodipodi:nodetypes="ccc"
           inkscape:transform-center-x="53.835294"
           inkscape:transform-center-y="-12.175713" />
        <path
           inkscape:transform-center-y="-2.7860191"
           inkscape:transform-center-x="54.662935"
           sodipodi:nodetypes="ccc"
           inkscape:connector-curvature="0"
           id="path4162"
           d="m -1961.7693,487.06934 c -67.7128,20.93939 -143.8729,70.12702 -148.3915,39.81182 9.8352,-20.45698 54.3853,-30.79473 148.3915,-39.81182 z"
           style="fill:#ffffff;fill-opacity:1;stroke:#000000;stroke-width:5.18371296;stroke-linecap:round;stroke-linejoin:miter;stroke-opacity:1" />
        <path
           style="fill:#ffffff;fill-opacity:1;stroke:#000000;stroke-width:5.18371296;stroke-linecap:round;stroke-linejoin:miter;stroke-opacity:1"
           d="m -1962.1034,487.24641 c -63.8774,34.15402 -132.1783,97.84885 -140.8259,68.85581 6.87,-22.13455 49.3718,-41.21429 140.8259,-68.85581 z"
           id="path4164"
           inkscape:connector-curvature="0"
           sodipodi:nodetypes="ccc"
           inkscape:transform-center-x="54.345298"
           inkscape:transform-center-y="9.651953" />
        <path
           sodipodi:nodetypes="cc"
           inkscape:connector-curvature="0"
           id="path4168"
           d="m -1954.5964,597.97307 c 12.4021,16.22066 35.1696,10.1851 43.1681,-9.10173"
           style="fill:#ffffff;stroke:#000000;stroke-width:5.18371296;stroke-linecap:round;stroke-linejoin:miter;stroke-opacity:1" />
        <path
           sodipodi:nodetypes="cssc"
           inkscape:connector-curvature="0"
           id="path4166"
           d="m -2017.2337,450.50237 c 18.1694,-65.01332 178.1736,-90.83979 212.3464,-24.85674 56.6522,109.38752 -61.7334,153.98716 -66.4031,155.26855 -151.1441,41.47363 -114.3757,-20.7231 -163.182,-38.48792"
           style="fill:#ffffff;stroke:#000000;stroke-width:5.18371296;stroke-linecap:round;stroke-linejoin:miter;stroke-opacity:1" />
        <path
           style="fill:#ffffff;stroke:#000000;stroke-width:5.18371296;stroke-linecap:round;stroke-linejoin:miter;stroke-opacity:1"
           d="m -1899.5096,590.25908 c 10.7792,7.29933 25.4972,13.02805 35.2366,-10.41432"
           id="path4170"
           inkscape:connector-curvature="0"
           sodipodi:nodetypes="cc" />
        <path
           inkscape:transform-center-y="16.149863"
           inkscape:transform-center-x="52.947547"
           sodipodi:nodetypes="ccc"
           inkscape:connector-curvature="0"
           id="path4172"
           d="m -1951.0998,484.16052 c -59.071,42.09002 -118.8209,114.0502 -131.0389,86.40398 4.0351,-22.83844 43.7968,-47.22808 131.0389,-86.40398 z"
           style="fill:#ffffff;fill-opacity:1;stroke:#000000;stroke-width:5.18371296;stroke-linecap:round;stroke-linejoin:miter;stroke-opacity:1" />
        <path
           style="fill:#ffffff;fill-opacity:1;stroke:#000000;stroke-width:5.18371296;stroke-linecap:round;stroke-linejoin:miter;stroke-opacity:1"
           d="m -1941.3644,476.05972 c -51.7208,51.0433 -99.4271,131.68719 -115.8262,106.35358 0.4018,-23.19698 35.8344,-53.66321 115.8262,-106.35358 z"
           id="path4174"
           inkscape:connector-curvature="0"
           sodipodi:nodetypes="ccc"
           inkscape:transform-center-x="49.994501"
           inkscape:transform-center-y="23.981469" />
        <g
           style="fill:#ffffff;stroke:#000000;stroke-width:3;stroke-linecap:round"
           transform="matrix(1.6996981,-0.25101896,0.24806425,1.7199433,-1966.3596,216.27578)"
           id="g4176">
          <path
             style="fill:#ffffff;fill-opacity:1;stroke:#000000;stroke-width:3;stroke-linecap:round;stroke-linejoin:miter;stroke-opacity:1"
             d="m -2.7779195,143.94189 c -28.9995015,-0.98398 -70.1552035,3.60363 -69.1954485,-11.11167 9.720465,-9.23773 41.080358,-2.35119 69.1954485,11.11167 z"
             id="path4178"
             inkscape:connector-curvature="0"
             sodipodi:nodetypes="ccc" />
          <path
             sodipodi:nodetypes="ccc"
             inkscape:connector-curvature="0"
             id="path4180"
             d="m -4.7597265,148.67349 c -28.9725975,1.58993 -69.5597905,9.80685 -69.9079325,-4.93561 8.863538,-10.06284 40.710345,-5.98262 69.9079325,4.93561 z"
             style="fill:#ffffff;fill-opacity:1;stroke:#000000;stroke-width:3;stroke-linecap:round;stroke-linejoin:miter;stroke-opacity:1" />
          <path
             style="fill:#ffffff;fill-opacity:1;stroke:#000000;stroke-width:3;stroke-linecap:round;stroke-linejoin:miter;stroke-opacity:1"
             d="m -5.352848,156.3377 c -28.765453,3.8063 -68.603294,15.11048 -70.080577,0.43809 8.066032,-10.71271 40.131913,-9.08589 70.080577,-0.43809 z"
             id="path4182"
             inkscape:connector-curvature="0"
             sodipodi:nodetypes="ccc" />
          <path
             sodipodi:nodetypes="ccc"
             inkscape:connector-curvature="0"
             id="path4184"
             d="m -4.7050118,165.0074 c -28.4301092,5.80242 -67.3829522,19.8564 -69.8795262,5.32269 7.29957,-11.24897 39.400847,-11.86158 69.8795262,-5.32269 z"
             style="fill:#ffffff;fill-opacity:1;stroke:#000000;stroke-width:3;stroke-linecap:round;stroke-linejoin:miter;stroke-opacity:1" />
          <path
             style="fill:#ffffff;fill-opacity:1;stroke:#000000;stroke-width:3;stroke-linecap:round;stroke-linejoin:miter;stroke-opacity:1"
             d="m -4.8531747,170.40254 c -27.5858903,8.99766 -64.6879503,27.38992 -68.8210033,13.23438 5.973068,-12.00607 37.796463,-16.26504 68.8210033,-13.23438 z"
             id="path4186"
             inkscape:connector-curvature="0"
             sodipodi:nodetypes="ccc" />
          <path
             sodipodi:nodetypes="ccc"
             inkscape:connector-curvature="0"
             id="path4188"
             d="m -1.8188292,173.68125 c -26.5862868,11.62363 -61.7354658,33.51822 -67.2182858,19.8288 4.783818,-12.5275 36.046074,-19.84451 67.2182858,-19.8288 z"
             style="fill:#ffffff;fill-opacity:1;stroke:#000000;stroke-width:3;stroke-linecap:round;stroke-linejoin:miter;stroke-opacity:1" />
          <path
             style="fill:#ffffff;fill-opacity:1;stroke:#000000;stroke-width:3;stroke-linecap:round;stroke-linejoin:miter;stroke-opacity:1"
             d="m 1.49313,175.78622 c -25.658729,13.54877 -59.101221,37.97084 -65.576666,24.72206 3.848864,-12.8456 34.487834,-22.44356 65.576666,-24.72206 z"
             id="path4190"
             inkscape:connector-curvature="0"
             sodipodi:nodetypes="ccc" />
          <path
             sodipodi:nodetypes="ccc"
             inkscape:connector-curvature="0"
             id="path4192"
             d="M 4.6591749,178.29543 C -18.787267,195.38941 -48.374872,224.362 -56.686265,212.18078 -54.722503,198.91553 -25.779959,185.01601 4.6591749,178.29543 z"
             style="fill:#ffffff;fill-opacity:1;stroke:#000000;stroke-width:3;stroke-linecap:round;stroke-linejoin:miter;stroke-opacity:1" />
        </g>
        <path
           sodipodi:nodetypes="cc"
           inkscape:connector-curvature="0"
           id="path4194"
           d="m -1944.9485,432.83742 c -38.6539,47.16358 -5.7489,110.64163 52.5959,112.46664"
           style="fill:#ffffff;fill-opacity:1;stroke:#000000;stroke-width:5.18371296;stroke-linecap:round;stroke-linejoin:miter;stroke-opacity:1" />
        <path
           sodipodi:nodetypes="cssc"
           inkscape:connector-curvature="0"
           id="path4196"
           d="m -1871.145,434.31146 c 40.0037,-48.44869 -5.1167,-83.17167 -11.1449,-125.07864 -8.5377,-59.35351 73.1966,-46.19894 60.678,3.64307 -11.8877,47.33043 20.7468,83.73065 17.3366,148.75856"
           style="fill:#ffffff;stroke:#000000;stroke-width:5.18371296;stroke-linecap:round;stroke-linejoin:miter;stroke-opacity:1" />
        <path
           sodipodi:nodetypes="cc"
           inkscape:connector-curvature="0"
           id="path4198"
           d="m -1867.3499,287.01049 c -4.259,-25.88763 22.2861,-45.45768 27.7623,-6.58429"
           style="fill:#ffffff;stroke:#000000;stroke-width:5.18371296;stroke-linecap:round;stroke-linejoin:miter;stroke-opacity:1" />
        <path
           sodipodi:nodetypes="ssccs"
           inkscape:connector-curvature="0"
           id="path4200"
           d="m -1860.3095,326.2338 c -1.3967,-6.09316 3.1908,-18.75083 18.5777,-19.10571 19.2175,-0.44323 28.4905,8.42426 37.7632,24.23953 -18.2101,8.15655 -30.5087,13.67379 -35.5989,13.08152 -8.1835,-2.78261 -17.8776,-5.71807 -20.742,-18.21534 z"
           style="fill:#ffffff;stroke:#000000;stroke-width:5.18371296;stroke-linecap:round;stroke-linejoin:miter;stroke-opacity:1" />
        <path
           sodipodi:nodetypes="cc"
           inkscape:connector-curvature="0"
           id="path4202"
           d="m -1804.8753,330.48328 c -15.0836,-4.79946 -32.8383,-5.59692 -43.9574,-4.92098"
           style="fill:#ffffff;stroke:#000000;stroke-width:5.18371296;stroke-linecap:round;stroke-linejoin:miter;stroke-opacity:1" />
        <path
           sodipodi:nodetypes="ccscc"
           inkscape:connector-curvature="0"
           id="path4204"
           d="m -1845.1851,308.04152 c -14.094,22.3739 -3.1728,34.80795 -5.0786,48.34364 -5.5592,16.74266 0.1512,27.95754 9.4568,27.64947 11.6454,-0.38556 11.6533,-13.50448 4.816,-28.76575 -7.3403,-11.16495 -10.4074,-31.61054 -9.1942,-47.22736 z"
           style="fill:#ff0000;stroke:#000000;stroke-width:5.18371296;stroke-linecap:round;stroke-linejoin:miter;stroke-opacity:1" />
        <g
           style="fill:#ffffff;stroke-width:3;stroke-linecap:round"
           transform="matrix(1.7177047,0,0,1.7381644,-1935.2397,215.62494)"
           id="g4206">
          <path
             sodipodi:type="arc"
             style="fill:#ffffff;fill-opacity:1;fill-rule:evenodd;stroke:#000000;stroke-width:4.27009201;stroke-linecap:round;stroke-linejoin:round;stroke-miterlimit:4;stroke-opacity:1;stroke-dasharray:none"
             id="path4208"
             sodipodi:cx="368.75"
             sodipodi:cy="1.8264667"
             sodipodi:rx="9.1071424"
             sodipodi:ry="14.107142"
             d="m 377.85714,1.8264667 c 0,7.7911596 -4.0774,14.1071423 -9.10714,14.1071423 -5.02974,0 -9.10714,-6.3159827 -9.10714,-14.1071423 0,-7.7911597 4.0774,-14.1071427 9.10714,-14.1071427 5.02974,0 9.10714,6.315983 9.10714,14.1071427 z"
             transform="matrix(0.71367403,0,0,0.6916209,-202.5524,38.577544)" />
          <path
             sodipodi:type="arc"
             style="fill:#ffffff;fill-opacity:1;fill-rule:evenodd;stroke:#000000;stroke-width:4.14815569;stroke-linecap:round;stroke-linejoin:round;stroke-miterlimit:4;stroke-opacity:1;stroke-dasharray:none"
             id="path4210"
             sodipodi:cx="352.85715"
             sodipodi:cy="-0.13781905"
             sodipodi:rx="7.8571429"
             sodipodi:ry="16.071428"
             d="m 360.71429,-0.13781905 c 0,8.87600475 -3.51776,16.07142805 -7.85714,16.07142805 -4.33938,0 -7.85715,-7.1954233 -7.85715,-16.07142805 0,-8.87600475 3.51777,-16.07142795 7.85715,-16.07142795 4.33938,0 7.85714,7.1954232 7.85714,16.07142795 z"
             transform="matrix(0.75832861,0,0,0.6897234,-217.92676,38.82429)" />
          <path
             sodipodi:type="arc"
             style="fill:#ffffff;fill-opacity:1;fill-rule:evenodd;stroke:#000000;stroke-width:4.27009201;stroke-linecap:round;stroke-linejoin:round;stroke-miterlimit:4;stroke-opacity:1;stroke-dasharray:none"
             id="path4212"
             sodipodi:cx="350.89285"
             sodipodi:cy="1.4693238"
             sodipodi:rx="1.25"
             sodipodi:ry="1.25"
             d="m 352.14285,1.4693238 c 0,0.6903559 -0.55964,1.25 -1.25,1.25 -0.69035,0 -1.25,-0.5596441 -1.25,-1.25 0,-0.69035598 0.55965,-1.25000005 1.25,-1.25000005 0.69036,0 1.25,0.55964407 1.25,1.25000005 z"
             transform="matrix(0.71367403,0,0,0.6916209,-201.0231,38.330537)" />
          <path
             d="m 352.14285,1.4693238 c 0,0.6903559 -0.55964,1.25 -1.25,1.25 -0.69035,0 -1.25,-0.5596441 -1.25,-1.25 0,-0.69035598 0.55965,-1.25000005 1.25,-1.25000005 0.69036,0 1.25,0.55964407 1.25,1.25000005 z"
             sodipodi:ry="1.25"
             sodipodi:rx="1.25"
             sodipodi:cy="1.4693238"
             sodipodi:cx="350.89285"
             id="path4214"
             style="fill:#ffffff;fill-opacity:1;fill-rule:evenodd;stroke:#000000;stroke-width:4.27009201;stroke-linecap:round;stroke-linejoin:round;stroke-miterlimit:4;stroke-opacity:1;stroke-dasharray:none"
             sodipodi:type="arc"
             transform="matrix(0.71367403,0,0,0.6916209,-189.29846,38.330537)" />
        </g>
      </g>
    </g>
  </g>
</svg>
